<?xml version="1.0" encoding="UTF-8" standalone="no"?>
<svg
   xmlns:dc="http://purl.org/dc/elements/1.1/"
   xmlns:cc="http://creativecommons.org/ns#"
   xmlns:rdf="http://www.w3.org/1999/02/22-rdf-syntax-ns#"
   xmlns:svg="http://www.w3.org/2000/svg"
   xmlns="http://www.w3.org/2000/svg"
   xmlns:sodipodi="http://sodipodi.sourceforge.net/DTD/sodipodi-0.dtd"
   xmlns:inkscape="http://www.inkscape.org/namespaces/inkscape"
   height="438pt"
   viewBox="0 -110 438 437"
   width="438pt"
   version="1.1"
   id="svg3987"
   sodipodi:docname="dumbell-white.svg"
   inkscape:version="0.92.4 (5da689c313, 2019-01-14)">
  <metadata
     id="metadata3993">
    <rdf:RDF>
      <cc:Work
         rdf:about="">
        <dc:format>image/svg+xml</dc:format>
        <dc:type
           rdf:resource="http://purl.org/dc/dcmitype/StillImage" />
        <dc:title></dc:title>
      </cc:Work>
    </rdf:RDF>
  </metadata>
  <defs
     id="defs3991" />
  <sodipodi:namedview
     pagecolor="#ffffff"
     bordercolor="#666666"
     borderopacity="1"
     objecttolerance="10"
     gridtolerance="10"
     guidetolerance="10"
     inkscape:pageopacity="0"
     inkscape:pageshadow="2"
     inkscape:window-width="2400"
     inkscape:window-height="1271"
     id="namedview3989"
     showgrid="false"
     inkscape:zoom="0.40410959"
     inkscape:cx="292"
     inkscape:cy="292"
     inkscape:window-x="-9"
     inkscape:window-y="-9"
     inkscape:window-maximized="1"
     inkscape:current-layer="svg3987" />
  <path
     d="m140.171875 70.085938h157.65625v77.703124h-157.65625zm0 0"
     id="path3977"
     style="fill:#ffffff" />
  <path
     d="m415.101562 48.953125h-10.9375v114.585937h10.9375c12.640626-.015624 22.886719-10.257812 22.898438-22.902343v-68.789063c-.015625-12.640625-10.261719-22.882812-22.898438-22.894531zm0 0"
     id="path3979"
     style="fill:#ffffff" />
  <path
     d="m361.265625.5h-43.4375v216.875h43.4375c12.640625-.015625 22.886719-10.257812 22.898437-22.898438v-171.078124c-.011718-12.640626-10.257812-22.882813-22.898437-22.898438zm0 0"
     id="path3981"
     style="fill:#ffffff" />
  <path
     d="m53.835938 23.398438v171.078124c.011718 12.640626 10.257812 22.886719 22.898437 22.898438h43.4375v-216.875h-43.4375c-12.640625.015625-22.886719 10.257812-22.898437 22.898438zm0 0"
     id="path3983"
     style="fill:#ffffff" />
  <path
     d="m0 71.851562v68.785157c.0117188 12.644531 10.257812 22.886719 22.898438 22.902343h10.9375v-114.585937h-10.9375c-12.640626.011719-22.882813 10.257813-22.898438 22.898437zm0 0"
     id="path3985"
     style="fill:#ffffff" />
</svg>
