<svg height="512pt" viewBox="-8 0 512 512" width="512pt" xmlns="http://www.w3.org/2000/svg"><path d="m496 30h-218.070312c-10.394532-17.914062-29.769532-30-51.929688-30s-41.535156 12.085938-51.929688 30c-12.722656 0-84.644531 0-99.070312 0-41.355469 0-75 33.644531-75 75 0 24.8125 20.1875 45 45 45s45-20.1875 45-45v-45h76c0 33.085938 26.914062 60 60 60s60-26.914062 60-60h15v45c0 8.269531-6.730469 15-15 15h-135v238.363281l-60 60v93.636719h90v-56.363281l30-30v86.363281h90c0-27.53125 0-266.078125 0-302h45c57.898438 0 105-47.101562 105-105v-45h45zm-436 75c0 8.269531-6.730469 15-15 15s-15-6.730469-15-15c0-19.554688 12.539062-36.238281 30-42.429688zm166-15c-16.542969 0-30-13.457031-30-30s13.457031-30 30-30 30 13.457031 30 30-13.457031 30-30 30zm-45 60h105c24.8125 0 45-20.1875 45-45v-45h30v45c0 41.355469-33.644531 75-75 75-14.09375 0-30.949219 0-45 0v30h30v61h-90zm-30 293.207031v38.792969h-30v-51.207031l60-60v-69.792969h30v82.210938zm120 38.792969h-30v-181h30zm150-377c0 36.253906-25.859375 66.578125-60.101562 73.507812 18.609374-18.953124 30.101562-44.910156 30.101562-73.507812v-45h30zm0 0"/><path d="m361 482v30h90v-30h-30v-32.578125c17.460938-6.195313 30-22.867187 30-42.421875 0-24.8125-20.1875-45-45-45s-45 20.1875-45 45c0 19.554688 12.539062 36.226562 30 42.421875v32.578125zm45-90c8.269531 0 15 6.730469 15 15s-6.730469 15-15 15-15-6.730469-15-15 6.730469-15 15-15zm0 0"/></svg>