<svg height="511pt" viewBox="0 -6 511.99944 511" width="511pt" xmlns="http://www.w3.org/2000/svg"><path d="m281.203125 262.964844c-17.339844-13.417969-38.5625-21.109375-60.832031-21.859375-20.027344-.679688-39.617188 4.289062-56.628906 14.199219l-16.878907-103.699219h69.660157c9.679687 0 18.796874-4.679688 24.398437-12.519531 5.550781-7.769532 7.011719-17.796876 3.921875-26.820313l-31.441406-91.636719c-2.691406-7.839844-8.609375-14.25-16.230469-17.601562-7.679687-3.367188-16.488281-3.367188-24.167969-.007813l-127.378906 55.839844c-10 4.386719-16.800781 13.828125-17.742188 24.648437l-27.769531 319.765626c-.898437 10.320312 3.550781 20.191406 11.890625 26.378906 24.820313 18.441406 60.378906 35.613281 100.160156 48.351562 45.917969 14.710938 94.476563 22.480469 140.417969 22.480469 18.808594 0 51.507813-2.351563 87.640625-5.589844v-283.65625c-29 18.246094-47.609375 38.359375-59.019531 51.726563zm0 0"/><path d="m505.21875 174.675781c-4.339844-4.167969-10.257812-6.410156-16.300781-6.179687-49.238281 1.992187-88.136719 12.640625-118.695313 26.570312v297.027344c22.226563-2.160156 44.6875-4.488281 65.128906-6.691406 43.6875-4.6875 76.648438-41.046875 76.648438-84.558594v-210.289062c0-5.957032-2.480469-11.746094-6.78125-15.878907zm0 0"/></svg>