<?xml version="1.0" encoding="UTF-8" standalone="no"?>
<!-- Generator: Adobe Illustrator 19.0.0, SVG Export Plug-In . SVG Version: 6.00 Build 0)  -->

<svg
   xmlns:dc="http://purl.org/dc/elements/1.1/"
   xmlns:cc="http://creativecommons.org/ns#"
   xmlns:rdf="http://www.w3.org/1999/02/22-rdf-syntax-ns#"
   xmlns:svg="http://www.w3.org/2000/svg"
   xmlns="http://www.w3.org/2000/svg"
   xmlns:sodipodi="http://sodipodi.sourceforge.net/DTD/sodipodi-0.dtd"
   xmlns:inkscape="http://www.inkscape.org/namespaces/inkscape"
   version="1.1"
   id="Capa_1"
   x="0px"
   y="0px"
   viewBox="0 0 512 512"
   style="enable-background:new 0 0 512 512;"
   xml:space="preserve"
   sodipodi:docname="running-white.svg"
   inkscape:version="0.92.4 (5da689c313, 2019-01-14)"><metadata
   id="metadata3869"><rdf:RDF><cc:Work
       rdf:about=""><dc:format>image/svg+xml</dc:format><dc:type
         rdf:resource="http://purl.org/dc/dcmitype/StillImage" /><dc:title></dc:title></cc:Work></rdf:RDF></metadata><defs
   id="defs3867" /><sodipodi:namedview
   pagecolor="#ffffff"
   bordercolor="#666666"
   borderopacity="1"
   objecttolerance="10"
   gridtolerance="10"
   guidetolerance="10"
   inkscape:pageopacity="0"
   inkscape:pageshadow="2"
   inkscape:window-width="2400"
   inkscape:window-height="1271"
   id="namedview3865"
   showgrid="false"
   inkscape:zoom="2.1054688"
   inkscape:cx="256"
   inkscape:cy="256"
   inkscape:window-x="-9"
   inkscape:window-y="-9"
   inkscape:window-maximized="1"
   inkscape:current-layer="Capa_1" />
<g
   id="g3796"
   style="fill:#ffffff">
	<g
   id="g3794"
   style="fill:#ffffff">
		<path
   d="M121,68.5H45c-8.291,0-15,6.709-15,15s6.709,15,15,15h76c8.291,0,15-6.709,15-15S129.291,68.5,121,68.5z"
   id="path3792"
   style="fill:#ffffff" />
	</g>
</g>
<g
   id="g3802"
   style="fill:#ffffff">
	<g
   id="g3800"
   style="fill:#ffffff">
		<path
   d="M121,188.5H45c-8.291,0-15,6.709-15,15s6.709,15,15,15h76c8.291,0,15-6.709,15-15S129.291,188.5,121,188.5z"
   id="path3798"
   style="fill:#ffffff" />
	</g>
</g>
<g
   id="g3808"
   style="fill:#ffffff">
	<g
   id="g3806"
   style="fill:#ffffff">
		<path
   d="M91,128.5H15c-8.291,0-15,6.709-15,15s6.709,15,15,15h76c8.291,0,15-6.709,15-15S99.291,128.5,91,128.5z"
   id="path3804"
   style="fill:#ffffff" />
	</g>
</g>
<g
   id="g3814"
   style="fill:#ffffff">
	<g
   id="g3812"
   style="fill:#ffffff">
		<path
   d="M482,203.5h-91v-60c0-26.346-32.229-40.218-51.22-21.202L219.789,242.289c-11.719,11.719-11.719,30.703,0,42.422    l68.789,68.789l-83.789,83.789c-11.719,11.719-11.719,30.703,0,42.422c11.718,11.718,30.703,11.719,42.422,0l105-105    c11.719-11.719,11.719-30.703,0-42.422L283.422,263.5L331,215.922V233.5c0,16.567,13.433,30,30,30h121c16.567,0,30-13.433,30-30    S498.567,203.5,482,203.5z"
   id="path3810"
   style="fill:#ffffff" />
	</g>
</g>
<g
   id="g3820"
   style="fill:#ffffff">
	<g
   id="g3818"
   style="fill:#ffffff">
		<path
   d="M280.14,51.04c-11.924-7.925-27.744-6.357-37.852,3.75l-82.5,82.5c-11.719,11.719-11.719,30.703,0,42.422    s30.704,11.718,42.423-0.001l65.112-65.112l21.934,15.8l29.306-29.306c4.902-4.902,10.684-8.707,17.007-11.678L280.14,51.04z"
   id="path3816"
   style="fill:#ffffff" />
	</g>
</g>
<g
   id="g3826"
   style="fill:#ffffff">
	<g
   id="g3824"
   style="fill:#ffffff">
		<path
   d="M198.578,305.922c-7.601-7.601-12.675-16.956-15.35-27.072L24.789,437.289c-11.719,11.719-11.719,30.703,0,42.422    c11.718,11.718,30.703,11.719,42.422,0l152.578-152.578L198.578,305.922z"
   id="path3822"
   style="fill:#ffffff" />
	</g>
</g>
<g
   id="g3832"
   style="fill:#ffffff">
	<g
   id="g3830"
   style="fill:#ffffff">
		<circle
   cx="406"
   cy="68.5"
   r="45"
   id="circle3828"
   style="fill:#ffffff" />
	</g>
</g>
<g
   id="g3834"
   style="fill:#ffffff">
</g>
<g
   id="g3836"
   style="fill:#ffffff">
</g>
<g
   id="g3838"
   style="fill:#ffffff">
</g>
<g
   id="g3840"
   style="fill:#ffffff">
</g>
<g
   id="g3842"
   style="fill:#ffffff">
</g>
<g
   id="g3844"
   style="fill:#ffffff">
</g>
<g
   id="g3846"
   style="fill:#ffffff">
</g>
<g
   id="g3848"
   style="fill:#ffffff">
</g>
<g
   id="g3850"
   style="fill:#ffffff">
</g>
<g
   id="g3852"
   style="fill:#ffffff">
</g>
<g
   id="g3854"
   style="fill:#ffffff">
</g>
<g
   id="g3856"
   style="fill:#ffffff">
</g>
<g
   id="g3858"
   style="fill:#ffffff">
</g>
<g
   id="g3860"
   style="fill:#ffffff">
</g>
<g
   id="g3862"
   style="fill:#ffffff">
</g>
</svg>